<svg 
 xmlns="http://www.w3.org/2000/svg"
 xmlns:xlink="http://www.w3.org/1999/xlink"
 width="41px" height="33px">
<defs>
<filter id="Filter_0">
    <feFlood flood-color="rgb(255, 59, 74)" flood-opacity="1" result="floodOut" />
    <feComposite operator="atop" in="floodOut" in2="SourceGraphic" result="compOut" />
    <feBlend mode="normal" in="compOut" in2="SourceGraphic" />
</filter>
<linearGradient id="PSgrad_0" x1="0%" x2="70.711%" y1="0%" y2="70.711%">
  <stop offset="0%" stop-color="rgb(255,255,255)" stop-opacity="1" />
  <stop offset="100%" stop-color="rgb(255,255,255)" stop-opacity="1" />
</linearGradient>

</defs>
<g filter="url(#Filter_0)">
<path fill-rule="evenodd"  fill="url(#PSgrad_0)"
 d="M40.81,10.446 C40.81,10.414 40.54,10.399 40.49,10.367 C40.41,10.299 40.54,10.228 40.26,10.162 L35.906,0.466 C35.793,0.201 35.530,0.26 35.238,0.26 L4.839,0.26 C4.547,0.26 4.284,0.201 4.170,0.466 L0.48,10.162 C0.20,10.228 0.33,10.299 0.22,10.367 C0.20,10.399 0.6,10.414 0.6,10.446 C0.6,10.460 0.9,10.471 0.9,10.488 C0.20,10.646 0.64,10.797 0.172,10.922 L19.492,32.754 C19.508,32.774 19.537,32.766 19.553,32.785 C19.605,32.831 19.648,32.873 19.711,32.907 C19.724,32.913 19.726,32.935 19.745,32.941 C19.840,32.981 19.940,33.1 20.34,33.1 C20.132,33.1 20.232,32.981 20.327,32.941 C20.345,32.935 20.348,32.913 20.361,32.904 C20.424,32.873 20.466,32.831 20.516,32.785 C20.534,32.766 20.564,32.774 20.579,32.754 L39.899,10.922 C40.7,10.797 40.54,10.646 40.65,10.488 C40.65,10.471 40.81,10.460 40.81,10.446 ZM24.964,1.469 L28.518,9.725 L11.556,9.725 L15.112,1.469 L24.964,1.469 ZM28.507,11.167 L20.34,30.474 L11.567,11.167 L28.507,11.167 ZM9.982,11.167 L17.513,28.338 L2.320,11.167 L9.982,11.167 ZM30.92,11.167 L37.751,11.167 L22.559,28.335 L30.92,11.167 ZM38.265,9.725 L30.94,9.725 L26.541,1.469 L34.756,1.469 L38.265,9.725 ZM5.318,1.469 L13.538,1.469 L9.982,9.725 L1.809,9.725 L5.318,1.469 Z"/>
</g>
</svg>