<svg 
 xmlns="http://www.w3.org/2000/svg"
 xmlns:xlink="http://www.w3.org/1999/xlink"
 width="40px" height="38px">
<defs>
<filter id="Filter_0">
    <feFlood flood-color="rgb(255, 59, 74)" flood-opacity="1" result="floodOut" />
    <feComposite operator="atop" in="floodOut" in2="SourceGraphic" result="compOut" />
    <feBlend mode="normal" in="compOut" in2="SourceGraphic" />
</filter>
<linearGradient id="PSgrad_0" x1="0%" x2="70.711%" y1="0%" y2="70.711%">
  <stop offset="0%" stop-color="rgb(255,255,255)" stop-opacity="1" />
  <stop offset="100%" stop-color="rgb(255,255,255)" stop-opacity="1" />
</linearGradient>

</defs>
<g filter="url(#Filter_0)">
<path fill-rule="evenodd"  fill="url(#PSgrad_0)"
 d="M39.699,13.66 C38.650,10.252 37.101,7.710 35.91,5.508 C33.92,3.319 30.700,1.546 27.977,0.238 C27.671,0.92 27.304,0.144 27.53,0.376 L9.564,16.338 L7.545,18.182 C7.436,18.269 7.342,18.385 7.284,18.526 C7.275,18.547 7.266,18.575 7.257,18.599 L2.554,30.809 L0.547,36.26 C0.432,36.321 0.499,36.652 0.711,36.889 C0.871,37.65 1.96,37.158 1.326,37.158 C1.402,37.158 1.481,37.148 1.557,37.124 L6.935,35.600 L19.585,32.13 C19.664,31.992 19.743,31.956 19.815,31.910 C19.855,31.883 19.894,31.852 19.930,31.822 L21.995,29.937 L39.481,13.975 C39.732,13.745 39.817,13.384 39.699,13.66 ZM3.779,32.272 C3.812,32.294 3.852,32.307 3.885,32.325 C4.243,32.550 4.577,32.798 4.853,33.104 C5.128,33.406 5.347,33.759 5.538,34.133 C5.559,34.167 5.568,34.209 5.583,34.247 L2.706,35.64 L3.779,32.272 ZM18.945,30.458 L7.233,33.779 C7.199,33.707 7.142,33.653 7.105,33.582 C6.835,32.995 6.511,32.443 6.87,31.976 C5.659,31.511 5.138,31.141 4.577,30.816 C4.507,30.776 4.464,30.713 4.395,30.677 L8.767,19.325 L10.77,18.136 L11.135,19.293 L20.249,29.268 L18.945,30.458 ZM21.483,28.141 L18.836,25.245 L32.738,12.561 C32.917,12.394 33.7,12.169 33.7,11.939 C33.7,11.742 32.938,11.539 32.789,11.380 C32.480,11.39 31.949,11.17 31.610,11.327 L17.708,24.11 L17.165,23.414 L15.82,21.130 L28.978,8.447 C29.160,8.279 29.251,8.55 29.251,7.824 C29.251,7.627 29.178,7.425 29.33,7.264 C28.720,6.926 28.190,6.905 27.850,7.213 L13.951,19.899 L11.311,17.5 L27.756,1.992 C30.76,3.180 32.128,4.736 33.856,6.637 C35.597,8.540 36.961,10.722 37.931,13.127 L21.483,28.141 Z"/>
</g>
</svg>