<svg 
 xmlns="http://www.w3.org/2000/svg"
 xmlns:xlink="http://www.w3.org/1999/xlink"
 width="41px" height="41px">
<defs>
<filter id="Filter_0">
    <feFlood flood-color="rgb(255, 59, 74)" flood-opacity="1" result="floodOut" />
    <feComposite operator="atop" in="floodOut" in2="SourceGraphic" result="compOut" />
    <feBlend mode="normal" in="compOut" in2="SourceGraphic" />
</filter>
<linearGradient id="PSgrad_0" x1="0%" x2="70.711%" y1="0%" y2="70.711%">
  <stop offset="0%" stop-color="rgb(128,39,117)" stop-opacity="1" />
  <stop offset="0%" stop-color="rgb(255,255,255)" stop-opacity="1" />
  <stop offset="100%" stop-color="rgb(255,255,255)" stop-opacity="1" />
</linearGradient>

</defs>
<g filter="url(#Filter_0)">
<path fill-rule="evenodd"  fill="url(#PSgrad_0)"
 d="M40.201,23.207 L35.221,24.458 C34.928,25.438 34.534,26.387 34.51,27.287 L36.695,31.703 C36.865,31.989 36.821,32.352 36.586,32.585 L33.172,36.16 C32.937,36.248 32.574,36.288 32.295,36.125 L27.889,33.473 C26.980,33.970 26.30,34.370 25.57,34.677 L23.824,39.640 C23.744,39.960 23.456,40.185 23.125,40.185 L18.293,40.188 C17.965,40.188 17.678,39.962 17.597,39.643 L16.359,34.680 C15.396,34.382 14.446,33.976 13.527,33.475 L9.126,36.125 C8.845,36.295 8.482,36.248 8.249,36.18 L4.830,32.588 C4.598,32.355 4.553,31.993 4.723,31.709 L7.365,27.301 C6.874,26.390 6.480,25.441 6.188,24.463 L1.212,23.216 C0.894,23.137 0.667,22.846 0.667,22.518 L0.667,17.674 C0.667,17.342 0.894,17.53 1.212,16.975 L6.159,15.736 C6.462,14.760 6.866,13.807 7.362,12.892 L4.721,8.477 C4.551,8.193 4.595,7.828 4.827,7.595 L8.242,4.172 C8.477,3.937 8.839,3.888 9.121,4.65 L13.522,6.711 C14.428,6.224 15.375,5.825 16.349,5.533 L17.591,0.543 C17.672,0.223 17.959,0.2 18.288,0.2 L23.120,0.2 C23.449,0.2 23.738,0.223 23.817,0.543 L25.54,5.510 C26.25,5.813 26.975,6.217 27.883,6.707 L32.289,4.56 C32.566,3.894 32.932,3.937 33.167,4.167 L36.581,7.590 C36.815,7.823 36.860,8.186 36.690,8.473 L34.49,12.892 C34.534,13.798 34.928,14.747 35.221,15.718 L40.201,16.970 C40.522,17.48 40.746,17.339 40.746,17.669 L40.746,22.509 C40.746,22.838 40.522,23.130 40.201,23.207 ZM39.308,18.232 L34.469,17.16 C34.216,16.954 34.17,16.758 33.950,16.505 C33.644,15.372 33.187,14.269 32.595,13.233 C32.467,13.9 32.470,12.730 32.603,12.503 L35.168,8.213 L32.548,5.586 L28.267,8.161 C28.45,8.296 27.768,8.303 27.539,8.167 C26.495,7.564 25.393,7.96 24.261,6.776 C24.12,6.707 23.822,6.510 23.759,6.258 L22.559,1.439 L18.852,1.439 L17.643,6.287 C17.581,6.539 17.385,6.740 17.135,6.807 C15.999,7.117 14.900,7.574 13.867,8.169 C13.642,8.303 13.365,8.300 13.138,8.161 L8.863,5.587 L6.242,8.219 L8.808,12.503 C8.944,12.730 8.944,13.9 8.813,13.235 C8.210,14.289 7.741,15.396 7.425,16.529 C7.354,16.781 7.156,16.972 6.905,17.35 L2.105,18.237 L2.105,21.953 L6.939,23.168 C7.192,23.230 7.391,23.427 7.459,23.678 C7.766,24.814 8.221,25.916 8.819,26.953 C8.949,27.181 8.946,27.461 8.811,27.685 L6.245,31.969 L8.868,34.602 L13.144,32.26 C13.259,31.956 13.386,31.921 13.514,31.921 C13.637,31.921 13.762,31.953 13.874,32.18 C14.929,32.628 16.33,33.96 17.153,33.408 C17.401,33.478 17.591,33.680 17.657,33.931 L18.857,38.746 L22.564,38.743 L23.762,33.926 C23.824,33.678 24.15,33.478 24.263,33.408 C25.399,33.88 26.500,32.620 27.541,32.16 C27.768,31.882 28.45,31.887 28.270,32.19 L32.550,34.600 L35.174,31.964 L32.603,27.675 C32.467,27.449 32.467,27.169 32.595,26.941 C33.187,25.914 33.641,24.816 33.950,23.672 C34.17,23.421 34.216,23.225 34.469,23.163 L39.308,21.945 L39.308,18.232 ZM20.711,25.657 C17.651,25.657 15.161,23.163 15.161,20.91 C15.161,17.22 17.651,14.528 20.711,14.528 C23.767,14.528 26.255,17.22 26.255,20.91 C26.255,23.163 23.767,25.657 20.711,25.657 ZM20.711,15.970 C18.442,15.970 16.600,17.820 16.600,20.91 C16.600,22.363 18.442,24.214 20.711,24.214 C22.974,24.214 24.816,22.363 24.816,20.91 C24.816,17.820 22.974,15.970 20.711,15.970 Z"/>
</g>
</svg>