<svg 
 xmlns="http://www.w3.org/2000/svg"
 xmlns:xlink="http://www.w3.org/1999/xlink"
 width="44px" height="33px">
<defs>
<filter id="Filter_0">
    <feFlood flood-color="rgb(255, 59, 74)" flood-opacity="1" result="floodOut" />
    <feComposite operator="atop" in="floodOut" in2="SourceGraphic" result="compOut" />
    <feBlend mode="normal" in="compOut" in2="SourceGraphic" />
</filter>
<linearGradient id="PSgrad_0" x1="0%" x2="70.711%" y1="0%" y2="70.711%">
  <stop offset="0%" stop-color="rgb(255,255,255)" stop-opacity="1" />
  <stop offset="100%" stop-color="rgb(255,255,255)" stop-opacity="1" />
</linearGradient>

</defs>
<g filter="url(#Filter_0)">
<path fill-rule="evenodd"  fill="url(#PSgrad_0)"
 d="M43.954,16.625 L43.954,26.966 C43.954,27.399 43.599,27.746 43.164,27.746 L40.526,27.746 C40.90,27.746 39.738,27.399 39.738,26.966 C39.738,26.535 40.90,26.185 40.526,26.185 L42.376,26.185 L42.376,17.316 L35.250,17.316 C34.815,17.316 34.462,16.967 34.462,16.537 L34.462,6.822 L28.124,6.822 L28.124,21.141 C28.124,21.570 27.772,21.922 27.336,21.922 C26.901,21.922 26.546,21.570 26.546,21.141 L26.546,6.43 L26.546,1.552 L1.584,1.552 L1.584,26.185 L3.463,26.185 C3.898,26.185 4.254,26.535 4.254,26.966 C4.254,27.399 3.898,27.746 3.463,27.746 L0.797,27.746 C0.361,27.746 0.6,27.399 0.6,26.966 L0.6,0.774 C0.6,0.344 0.361,0.3 0.797,0.3 L27.336,0.3 C27.772,0.3 28.124,0.344 28.124,0.774 L28.124,5.262 L43.164,5.262 C43.599,5.262 43.954,5.613 43.954,6.43 L43.954,16.445 C43.957,16.481 43.991,16.500 43.991,16.537 C43.991,16.571 43.957,16.590 43.954,16.625 ZM42.376,6.822 L36.37,6.822 L36.37,15.755 L42.376,15.755 L42.376,6.822 ZM11.397,20.948 C14.754,20.948 17.486,23.648 17.486,26.966 C17.486,30.287 14.754,32.985 11.397,32.985 C8.37,32.985 5.307,30.287 5.307,26.966 C5.307,23.648 8.37,20.948 11.397,20.948 ZM11.397,31.426 C13.883,31.426 15.908,29.426 15.908,26.966 C15.908,24.507 13.883,22.510 11.397,22.510 C8.908,22.510 6.883,24.507 6.883,26.966 C6.883,29.426 8.908,31.426 11.397,31.426 ZM19.328,26.185 L24.667,26.185 C25.102,26.185 25.454,26.535 25.454,26.966 C25.454,27.399 25.102,27.746 24.667,27.746 L19.328,27.746 C18.892,27.746 18.540,27.399 18.540,26.966 C18.540,26.535 18.892,26.185 19.328,26.185 ZM32.600,20.952 C35.954,20.952 38.684,23.650 38.684,26.969 C38.684,30.289 35.954,32.988 32.600,32.988 C29.241,32.988 26.508,30.289 26.508,26.969 C26.508,23.650 29.241,20.952 32.600,20.952 ZM32.600,31.429 C35.84,31.429 37.106,29.429 37.106,26.969 C37.106,24.510 35.84,22.511 32.600,22.511 C30.112,22.511 28.87,24.510 28.87,26.969 C28.87,29.429 30.112,31.429 32.600,31.429 Z"/>
</g>
</svg>